<?xml version="1.0" encoding="utf-8"?>
<!-- Generator: Adobe Illustrator 22.0.0, SVG Export Plug-In . SVG Version: 6.00 Build 0)  -->
<svg version="1.1" id="图层_1" xmlns="http://www.w3.org/2000/svg" xmlns:xlink="http://www.w3.org/1999/xlink" x="0px" y="0px"
	 viewBox="0 0 612 233.9" style="enable-background:new 0 0 612 233.9;" xml:space="preserve">
<style type="text/css">
	.st0{fill:#144495;}
	.st1{filter:url(#Adobe_OpacityMaskFilter);}
	.st2{fill:url(#SVGID_2_);}
	.st3{mask:url(#SVGID_1_);fill:#144495;}
</style>
<g>
	<g>
		<g>
			<path class="st0" d="M184.2,125.1c4.5-10.8,7.5-23.3,8.6-37.3h-27.3v5.2h21c-0.9,9.6-2.8,17.6-5.7,25.4l-10.4-20.1l-5.1,2.3
				l12.7,24.8c-3.9,8.6-9,16.4-14.9,23.3l4.5,3.4c5.1-6.2,9.8-13,13.5-20.5l7.5,14.4l5.2-2.4L184.2,125.1z"/>
			<path class="st0" d="M203.8,90.8c0-1.7,1.9-3,3.8-3h22.5c1.9,0,3.3,1.3,3.3,3v39.7h6.1V90.8c0-4.7-4.4-8.2-9.4-8.2h-22.5
				c-5,0-9,3.6-9,8.2v39.7h5.2V90.8z"/>
			<path class="st0" d="M266,113.1h44.1c10.5,0,10.5-4.9,10.5-10.3V91.9c0-5.5,0-10.2-10.5-10.2H266c-10.8,0-10.8,4.8-10.8,10.2
				v10.8C255.3,108.2,255.3,113.1,266,113.1z M261.4,91.9c0-2.6-0.1-5,4.7-5h44.1c5.3,0,5.3,2.4,5.3,5v2.9h-54.1V91.9z M261.4,100
				h54.1v2.7c0,2.5-0.1,4.2-5.3,4.2H266c-4.7,0-4.7-1.7-4.7-4.2V100z"/>
			<path class="st0" d="M291,148.9v-8.7h29.6v-5.2H291v-8.7h29.6V121H291v-6.1h-5.2v6.1h-24.1l1.5-5.4l-5.7-1.3l-3.4,11.9h31.7v8.7
				h-31.4v5.2h31.4v8.7h-55.1c-2.7,0-5.1-2-5.1-4.6v-18.9h-5.7c0.7-3.5,1.3-6.9,1.3-11.2V95.7h-6.1v18.5c0,21-10.5,29.7-25.2,34.9
				l2,5.1c13.9-5,24.9-12.5,27.6-28.6v18.6c0,5.5,5.3,9.9,11.2,9.9H325v-5.2H291z"/>
		</g>
		<path class="st0" d="M385.2,99.2v2.1c0,9.8-1.4,20.6-4.5,26.7h30.7v5.2h-24.6l25.8,16.2l-3.3,4.6l-32.2-20
			c-8.1,10.4-21.8,15.9-41.3,19.8l-1.2-5.4c15.9-3.2,27.6-7.4,35-15.2h-34.1v-5.2h38.4c3.8-6.1,6.1-16.5,6.1-26.7v-2.1H385.2z
			 M376.5,81.7V87h23.9c5.9,0,11,4.1,11,9.5v3.5h-6.1v-3.5c0-2.5-2.1-4.3-4.9-4.3h-53c-2.8,0-5,1.8-5,4.3v3.5h-6.1v-3.5
			c0-5.5,5.2-9.5,11.1-9.5h23.8v-5.2H376.5z M339,106.1h27.9v5.2H339V106.1z M339,116.6h27.9v6.1H339V116.6z"/>
		<g>
			<path class="st0" d="M441.2,114.9h-13.9l1.7-22.7l-5.8-0.3l-2,28.3h20c1.9,0,3.3,1.5,3.3,3.2v22.2c0,1.7-1.4,3.3-3.3,3.3h-10.6
				v5.2h10.6c5.1,0,9.4-3.9,9.4-8.5v-22.2C450.6,118.7,446.2,114.9,441.2,114.9z"/>
			<path class="st0" d="M457.6,108.8h33.9l1.7,3.7l5.4-2.2l-8.9-20.5c-2.1-4.6-5.4-7.2-11.1-7.2h-8.1c-5.8,0-9,2.5-11.1,7.2
				l-8.9,20.6l5.3,2.2L457.6,108.8z M464.8,92.4c1-2.5,2.7-3.7,5.7-3.7h8.1c2.8,0,4.6,1.4,5.7,3.7l4.9,11.2h-29.3L464.8,92.4z"/>
			<path class="st0" d="M443.6,90.3v22.8h6.1V90.3c0-4.7-4.4-8.5-9.6-8.5h-17.5V87h17.5C442,87,443.6,88.5,443.6,90.3z"/>
			<rect x="420.1" y="132.3" class="st0" width="21.8" height="5.2"/>
			<polygon class="st0" points="458.1,144.6 464,144 460.6,114.6 454.8,115.2 			"/>
			<path class="st0" d="M483.5,143.4l5.6,1.7c3.3-8.6,5.7-18.4,7-30l-5.8-0.6C489.1,125.9,486.7,135.3,483.5,143.4z"/>
			<polygon class="st0" points="473.8,144.6 479.6,144 476.3,114.6 470.5,115.2 			"/>
			<path class="st0" d="M573,87h-24.8v-5.2h-6.1V87h-25.3c-5.9,0-10.4,4.7-10.4,10.1v3h5.2v-3c0-2.5,2.5-4.9,5.2-4.9H573
				c2.7,0,4.9,2.4,4.9,4.9v3h6.1v-3C584,91.6,579,87,573,87z"/>
			<path class="st0" d="M548.3,139.3h32.3V134h-32.3v-8.7h20.6c3.8,0,6.2-0.9,7.1-3.3c0.6-1.5-0.3-4.5-0.3-4.5l-2.6-8.7h-5.2
				l2.2,8.3c0.2,0.4,0.3,0.9,0.2,1.4c-0.2,1.2-0.9,1.6-2.5,1.6h-45.3c-0.8,0-1.4-0.8-1.2-1.6l2.3-9.8h56.2v-5.2h-69.8v5.2h7.6
				l-2.6,10.8c-0.7,2.9,1.5,5.8,4.5,5.8h22.7v8.7h-32.3v5.2h32.3v9.6h-35.7h-54.1v5.2h54.1h76.7v-5.2h-34.9V139.3z"/>
		</g>
	</g>
	<path class="st0" d="M106.2,148.4c-30.3,0-54.9-24.6-54.9-54.9c0-16.4,7.2-31.2,18.6-41.2C50,60.5,36.1,80.1,36.1,103
		c0,30.3,24.6,54.9,54.9,54.9c13.9,0,26.6-5.2,36.3-13.7C120.8,146.9,113.7,148.4,106.2,148.4z"/>
	<defs>
		<filter id="Adobe_OpacityMaskFilter" filterUnits="userSpaceOnUse" x="65.4" y="151.5" width="32.8" height="20.1">
			<feFlood  style="flood-color:white;flood-opacity:1" result="back"/>
			<feBlend  in="SourceGraphic" in2="back" mode="normal"/>
		</filter>
	</defs>
	<mask maskUnits="userSpaceOnUse" x="65.4" y="151.5" width="32.8" height="20.1" id="SVGID_1_">
		<g class="st1">
			<linearGradient id="SVGID_2_" gradientUnits="userSpaceOnUse" x1="78.4262" y1="157.0465" x2="78.4262" y2="174.4841">
				<stop  offset="0" style="stop-color:#FFFFFF"/>
				<stop  offset="0.6266" style="stop-color:#000000"/>
			</linearGradient>
			<rect x="54.7" y="153.5" class="st2" width="47.5" height="26.4"/>
		</g>
	</mask>
	<path class="st3" d="M70.5,156c-4,3.8-5.7,9.2-4.9,14.3c0.7-3,2.3-5.8,4.7-8.1c6.6-6.3,16.9-6,23.2,0.5c2.4,2.5,3.9,5.7,4.3,8.9
		c1.2-5.2-0.1-10.9-4.1-15C87.4,150,77,149.8,70.5,156z"/>
	<circle class="st0" cx="101" cy="87.7" r="4.3"/>
	<circle class="st0" cx="139.8" cy="99.1" r="2.3"/>
	<circle class="st0" cx="110.2" cy="104.8" r="2.3"/>
	<circle class="st0" cx="117" cy="109.7" r="1.7"/>
	<circle class="st0" cx="96.9" cy="75.9" r="1.7"/>
	<circle class="st0" cx="119.3" cy="91.9" r="8.3"/>
	<circle class="st0" cx="77.9" cy="80.1" r="6.4"/>
	<circle class="st0" cx="128" cy="71.3" r="4.6"/>
	<circle class="st0" cx="98.4" cy="64.9" r="5.6"/>
	<circle class="st0" cx="128" cy="116.6" r="4.6"/>
	<circle class="st0" cx="90" cy="108.6" r="6.7"/>
	<circle class="st0" cx="107.1" cy="120.4" r="3.7"/>
	
		<rect x="107.7" y="61.3" transform="matrix(0.7905 -0.6124 0.6124 0.7905 -25.2021 83.0611)" class="st0" width="2.3" height="34.1"/>
	
		<rect x="108.8" y="80.4" transform="matrix(0.2234 -0.9747 0.9747 0.2234 -1.9557 177.0957)" class="st0" width="2.7" height="18.7"/>
	
		<rect x="112.5" y="80.3" transform="matrix(0.3918 -0.9201 0.9201 0.3918 0.1236 163.3955)" class="st0" width="22.3" height="2.7"/>
	
		<rect x="122.3" y="91.1" transform="matrix(0.9427 -0.3336 0.3336 0.9427 -27.6821 47.216)" class="st0" width="2.7" height="26.2"/>
	
		<rect x="123.4" y="107.1" transform="matrix(0.5591 -0.8291 0.8291 0.5591 -30.3576 158.5684)" class="st0" width="21.1" height="1.5"/>
	
		<rect x="106.9" y="117.7" transform="matrix(0.9839 -0.1787 0.1787 0.9839 -19.2791 22.9183)" class="st0" width="21.2" height="1.5"/>
	
		<rect x="83.7" y="97" transform="matrix(0.4665 -0.8845 0.8845 0.4665 -35.8407 136.8488)" class="st0" width="23.6" height="2.3"/>
	
		<rect x="88.1" y="71.7" transform="matrix(0.3116 -0.9502 0.9502 0.3116 -18.1309 142.744)" class="st0" width="2.7" height="24.4"/>
	
		<rect x="89.8" y="106.1" transform="matrix(0.9826 -0.1856 0.1856 0.9826 -18.0609 20.428)" class="st0" width="20.5" height="1.1"/>
	
		<rect x="113.2" y="103" transform="matrix(0.5708 -0.8211 0.8211 0.5708 -39.2419 139.2606)" class="st0" width="0.8" height="8.3"/>
	
		<rect x="91.7" y="69.8" transform="matrix(0.1133 -0.9936 0.9936 0.1133 16.7537 159.089)" class="st0" width="11.6" height="0.8"/>
</g>
</svg>
